<svg width="54" height="30" viewBox="0 0 54 30" fill="none" xmlns="http://www.w3.org/2000/svg">
<g clip-path="url(#clip0_7_2)">
<path d="M19.122 27.216C19.122 26.659 19.176 26.022 19.284 25.306C19.42 24.59 19.582 23.861 19.771 23.118C19.961 22.35 20.151 21.607 20.34 20.891C20.5084 20.256 20.6704 19.6193 20.826 18.981C20.989 18.292 20.976 17.761 20.786 17.391C20.596 17.019 20.272 16.834 19.812 16.834C19.595 16.834 19.162 17.019 18.513 17.391C17.891 17.761 17.201 18.411 16.443 19.34C15.713 20.241 14.982 21.474 14.251 23.039C13.548 24.577 12.993 26.539 12.587 28.926C12.073 29.191 11.587 29.364 11.127 29.443C10.9119 29.4911 10.6951 29.5311 10.477 29.563C9.93599 29.589 9.58399 29.496 9.42099 29.284C9.25899 29.098 9.28599 28.621 9.50299 27.852C9.61099 27.481 9.79999 26.884 10.071 26.062C10.368 25.24 10.653 24.352 10.923 23.397C11.193 22.416 11.423 21.447 11.613 20.493C11.83 19.513 11.938 18.663 11.938 17.948C11.938 17.444 11.843 17.098 11.654 16.913C11.491 16.728 11.248 16.635 10.924 16.635C10.68 16.635 10.274 16.767 9.70599 17.033C9.13699 17.298 8.50099 17.815 7.79799 18.583C7.09399 19.353 6.39099 20.427 5.68799 21.806C5.01099 23.158 4.42899 24.922 3.94199 27.096V27.016L3.77999 27.653C3.72378 27.8485 3.68299 28.0481 3.65799 28.25C3.63295 28.4516 3.59216 28.6508 3.53599 28.846L1.50599 29.722C1.33584 29.783 1.15886 29.823 0.978994 29.841C0.78157 29.8656 0.581593 29.8234 0.410994 29.721C0.248994 29.642 0.126994 29.456 0.0459937 29.165C-0.0360063 28.873 -0.00800632 28.435 0.125994 27.852L2.68499 17.47C2.76599 17.125 2.83399 16.794 2.88799 16.476C2.94199 16.184 2.96899 15.906 2.96899 15.64C2.99599 15.349 2.98299 15.11 2.92899 14.924C3.32349 14.7379 3.73007 14.5785 4.14599 14.447C4.49799 14.341 4.78199 14.262 4.99799 14.208C5.26799 14.128 5.49799 14.089 5.68799 14.089C6.55399 14.089 6.83799 14.819 6.54099 16.277C6.43199 16.701 6.27099 17.324 6.05399 18.147C6.55991 17.5194 7.10183 16.9218 7.67699 16.357C8.23855 15.802 8.83511 15.2836 9.46299 14.805C10.0153 14.3799 10.6146 14.0196 11.249 13.731C11.871 13.466 12.48 13.333 13.075 13.333C13.535 13.333 13.915 13.466 14.212 13.731C14.537 13.996 14.78 14.354 14.942 14.805C15.132 15.229 15.24 15.746 15.267 16.356C15.294 16.94 15.267 17.55 15.186 18.186C15.619 17.629 16.092 17.072 16.606 16.516C17.1207 15.9571 17.6773 15.4382 18.271 14.964C18.866 14.514 19.475 14.142 20.097 13.85C20.6793 13.5678 21.317 13.4185 21.964 13.413C22.694 13.413 23.249 13.625 23.628 14.049C24.034 14.474 24.305 15.017 24.44 15.68C24.602 16.343 24.643 17.06 24.562 17.828C24.5107 18.5779 24.402 19.3227 24.237 20.056L22.857 25.426C22.559 26.752 22.843 27.415 23.709 27.415C24.386 27.415 25.129 27.096 25.942 26.46C26.7976 25.7812 27.5859 25.0217 28.296 24.192C29.0715 23.3282 29.8027 22.4257 30.487 21.488C31.0336 20.7289 31.6021 19.986 32.192 19.26C32.354 19.074 32.517 18.968 32.679 18.942C32.869 18.915 33.017 18.955 33.126 19.062C33.261 19.141 33.329 19.287 33.329 19.499C33.356 19.711 33.288 19.976 33.126 20.294C32.5011 21.3525 31.8374 22.3876 31.136 23.397C30.3524 24.5095 29.4841 25.56 28.539 26.539C27.6614 27.4852 26.6656 28.3144 25.576 29.006C24.521 29.669 23.426 30 22.289 30C21.9069 29.9995 21.5258 29.9593 21.152 29.88C20.7905 29.7963 20.4471 29.6482 20.138 29.443C19.834 29.2239 19.584 28.9383 19.407 28.608C19.217 28.237 19.123 27.773 19.123 27.216H19.122Z" fill="white"/>
<path d="M52.068 20.028C52.264 19.806 52.459 19.695 52.655 19.695C52.879 19.668 53.047 19.723 53.158 19.861C53.298 19.972 53.354 20.152 53.326 20.401C53.326 20.651 53.215 20.928 52.991 21.233C52.4125 22.0106 51.7965 22.7595 51.145 23.477C50.445 24.224 49.69 24.958 48.879 25.679C48.096 26.399 47.299 27.078 46.488 27.715C45.7486 28.304 44.9627 28.8321 44.138 29.294C43.299 29.764 42.586 30 41.998 30C41.439 30 40.88 29.64 40.321 28.92C39.817 28.282 39.566 27.604 39.566 26.884C39.593 26.136 39.761 25.208 40.069 24.1C40.3078 23.2742 40.5737 22.4564 40.866 21.648C41.23 20.678 41.509 19.751 41.706 18.864C41.929 17.978 41.999 17.23 41.915 16.62C41.831 15.983 41.467 15.665 40.825 15.665C40.377 15.665 39.887 15.817 39.355 16.122C38.7973 16.4687 38.2771 16.8726 37.803 17.327C37.3 17.797 36.811 18.337 36.335 18.947C35.86 19.557 35.44 20.152 35.076 20.734C34.853 21.814 34.629 22.881 34.406 23.934C34.209 24.82 34 25.789 33.776 26.842C33.6028 27.7607 33.4068 28.675 33.188 29.584C33.021 29.723 32.838 29.82 32.643 29.875C32.466 29.9275 32.2826 29.9555 32.098 29.958C31.902 29.958 31.706 29.945 31.51 29.917C31.2899 29.8628 31.0783 29.7787 30.881 29.667C30.6934 29.5382 30.5241 29.3845 30.378 29.21C30.21 29.044 30.084 28.809 30 28.504C31.0138 24.3957 32.0068 20.2823 32.979 16.164C33.706 13.061 34.265 10.692 34.657 9.058C35.104 7.119 35.412 5.776 35.58 5.028C35.664 4.501 35.734 3.988 35.79 3.49C35.846 3.047 35.874 2.59 35.874 2.12C35.874 1.648 35.832 1.219 35.748 0.831C35.971 0.693 36.209 0.581 36.461 0.499C36.741 0.416 37.006 0.346 37.258 0.291C37.566 0.208 37.873 0.139 38.181 0.083C38.458 0.0307712 38.7391 0.00299761 39.021 0C39.244 0 39.454 0.028 39.649 0.083C39.845 0.111 39.971 0.193 40.027 0.333C40.195 0.471 40.265 0.748 40.237 1.163C40.237 1.579 40.209 2.008 40.153 2.452C40.0316 3.02068 39.9056 3.58837 39.775 4.155C39.1973 6.36647 38.5395 8.55625 37.803 10.72C37.0392 12.9491 36.3677 15.2086 35.79 17.493C36.153 16.939 36.587 16.371 37.09 15.79C37.5862 15.2147 38.1338 14.6859 38.726 14.21C39.3153 13.7276 39.9639 13.3227 40.656 13.005C41.3207 12.6743 42.0536 12.5038 42.796 12.507C43.188 12.507 43.551 12.577 43.886 12.715C44.25 12.825 44.558 13.033 44.81 13.338C45.09 13.615 45.3 14.003 45.439 14.501C45.579 14.972 45.635 15.568 45.607 16.288C45.607 16.731 45.551 17.188 45.439 17.659C45.355 18.13 45.229 18.657 45.061 19.239C44.8654 19.8716 44.6418 20.4952 44.391 21.108C44.0945 21.9157 43.7865 22.7191 43.467 23.518C43.2529 24.0511 43.0571 24.5915 42.88 25.138C42.74 25.582 42.768 25.969 42.964 26.302C43.216 26.745 43.704 26.856 44.432 26.634C45.187 26.385 46.306 25.664 47.788 24.474C48.1812 24.1447 48.5593 23.7976 48.921 23.434C49.341 23.019 49.746 22.604 50.138 22.188C50.529 21.745 50.893 21.33 51.228 20.942C51.564 20.554 51.844 20.249 52.068 20.028Z" fill="#CA164C"/>
</g>
<defs>
<clipPath id="clip0_7_2">
<rect width="54" height="30" fill="white"/>
</clipPath>
</defs>
</svg>
