<svg width="1075" height="477" viewBox="0 0 1075 477" fill="none" xmlns="http://www.w3.org/2000/svg">
<path d="M537.5 453.249C828.83 453.249 1065 437.614 1065 418.328C1065 399.041 828.83 383.406 537.5 383.406C246.17 383.406 10 399.041 10 418.328C10 437.614 246.17 453.249 537.5 453.249Z" fill="#191919"/>
<path d="M517.282 36.0278C431.338 36.0278 369.631 91.1672 369.631 219.826C369.631 365.639 431.338 404.236 517.282 404.236C603.226 404.236 668.609 361.963 668.609 219.826C668.609 67.8861 603.226 36.0278 517.282 36.0278ZM517.847 355.836C458.32 355.836 427.221 320.913 427.221 219.92C427.221 130.808 459.593 83.8153 519.12 83.8153C578.647 83.8153 611.019 114.683 611.019 219.92C611.019 318.367 577.374 355.836 517.847 355.836Z" fill="#BEBEBE"/>
<path d="M318.168 302.535H282.634V197.896C282.634 192.338 280.426 187.008 276.496 183.078C272.566 179.148 267.236 176.94 261.678 176.94H253.352C250.6 176.94 247.875 177.482 245.332 178.535C242.79 179.588 240.48 181.132 238.534 183.078C236.588 185.024 235.044 187.334 233.991 189.876C232.938 192.419 232.396 195.144 232.396 197.896V302.535H132.166C130.104 302.535 128.077 302.002 126.281 300.988C124.486 299.974 122.983 298.513 121.919 296.747C120.855 294.981 120.265 292.969 120.207 290.908C120.149 288.847 120.625 286.806 121.588 284.983L227.67 84.2026C228.993 81.6994 229.795 78.9542 230.027 76.1326C230.259 73.311 229.917 70.4716 229.022 67.7858C228.127 65.1 226.696 62.6234 224.818 60.5056C222.939 58.3878 220.65 56.6727 218.09 55.4638L211.828 52.5066C206.965 50.2104 201.406 49.8713 196.3 51.5596C191.195 53.2478 186.934 56.8342 184.398 61.5766L55.017 303.609C52.8138 307.731 51.6611 312.332 51.6611 317.005C51.6611 320.737 52.3961 324.432 53.8242 327.88C55.2522 331.327 57.3453 334.46 59.9839 337.098C62.6226 339.737 65.7551 341.83 69.2027 343.258C72.6503 344.686 76.3453 345.421 80.077 345.421H232.396V411.588C232.396 414.887 233.045 418.153 234.308 421.201C235.57 424.249 237.42 427.018 239.753 429.35C242.085 431.683 244.855 433.533 247.902 434.795C250.95 436.058 254.216 436.707 257.515 436.707H257.515C260.813 436.707 264.08 436.058 267.127 434.795C270.175 433.533 272.944 431.683 275.277 429.35C277.609 427.018 279.459 424.249 280.722 421.201C281.984 418.153 282.634 414.887 282.634 411.588V345.421H318.168C323.855 345.421 329.309 343.162 333.331 339.141C337.352 335.119 339.611 329.665 339.611 323.978C339.611 318.291 337.352 312.837 333.331 308.816C329.309 304.794 323.855 302.535 318.168 302.535Z" fill="#CA164C"/>
<path d="M976.164 302.535H940.63V197.896C940.63 192.338 938.422 187.008 934.492 183.078C930.562 179.148 925.232 176.94 919.674 176.94H911.348C908.596 176.94 905.871 177.482 903.328 178.535C900.786 179.588 898.476 181.132 896.53 183.078C894.584 185.024 893.04 187.334 891.987 189.876C890.934 192.419 890.392 195.144 890.392 197.896V302.535H790.162C788.1 302.535 786.073 302.002 784.278 300.988C782.482 299.974 780.98 298.513 779.915 296.747C778.851 294.981 778.261 292.969 778.203 290.908C778.145 288.847 778.621 286.806 779.584 284.983L885.667 84.2027C886.989 81.6995 887.791 78.9542 888.023 76.1326C888.255 73.311 887.913 70.4716 887.018 67.7858C886.123 65.0999 884.692 62.6234 882.814 60.5056C880.935 58.3878 878.646 56.6727 876.086 55.4638L869.824 52.5066C864.961 50.2104 859.402 49.8713 854.296 51.5596C849.191 53.2478 844.93 56.8342 842.395 61.5766L713.013 303.609C710.81 307.731 709.657 312.332 709.657 317.005C709.657 324.542 712.651 331.769 717.98 337.098C723.309 342.427 730.537 345.421 738.073 345.421H890.392V411.588C890.392 418.25 893.038 424.639 897.749 429.35C902.46 434.061 908.849 436.707 915.511 436.707C922.173 436.707 928.562 434.061 933.273 429.35C937.983 424.639 940.63 418.25 940.63 411.588V345.421H976.164C981.851 345.421 987.305 343.162 991.327 339.141C995.348 335.119 997.607 329.665 997.607 323.978C997.607 318.291 995.348 312.837 991.327 308.816C987.305 304.794 981.851 302.535 976.164 302.535Z" fill="#CA164C"/>
<path d="M477.803 210.134C487.192 210.134 494.803 200.284 494.803 188.134C494.803 175.983 487.192 166.134 477.803 166.134C468.414 166.134 460.803 175.983 460.803 188.134C460.803 200.284 468.414 210.134 477.803 210.134Z" fill="#BEBEBE"/>
<path d="M570.303 210.634C579.692 210.634 587.303 200.784 587.303 188.634C587.303 176.483 579.692 166.634 570.303 166.634C560.914 166.634 553.303 176.483 553.303 188.634C553.303 200.784 560.914 210.634 570.303 210.634Z" fill="#BEBEBE"/>
<path d="M557.303 253.634C557.303 263.574 543.423 271.634 526.303 271.634C509.183 271.634 495.303 263.574 495.303 253.634C495.303 245.024 505.713 237.824 519.623 236.064C521.837 235.771 524.069 235.628 526.303 235.634C530.046 235.621 533.778 236.024 537.433 236.834C549.053 239.424 557.303 245.974 557.303 253.634Z" fill="#BEBEBE"/>
<path d="M537.803 238.334C537.811 239.591 537.339 240.804 536.483 241.726C536.079 242.167 535.587 242.52 535.04 242.762C534.493 243.004 533.901 243.131 533.303 243.134H523.303C522.071 243.091 520.906 242.562 520.062 241.662C519.219 240.763 518.766 239.566 518.803 238.334C518.798 237.359 519.083 236.404 519.623 235.592C521.836 235.281 524.068 235.128 526.303 235.134C530.05 235.121 533.786 235.551 537.433 236.414C537.68 237.023 537.805 237.676 537.803 238.334Z" fill="#141414"/>
<path d="M481.803 182.134C484.564 182.134 486.803 179.895 486.803 177.134C486.803 174.372 484.564 172.134 481.803 172.134C479.041 172.134 476.803 174.372 476.803 177.134C476.803 179.895 479.041 182.134 481.803 182.134Z" fill="#141414"/>
<path d="M574.803 182.134C577.564 182.134 579.803 179.895 579.803 177.134C579.803 174.372 577.564 172.134 574.803 172.134C572.041 172.134 569.803 174.372 569.803 177.134C569.803 179.895 572.041 182.134 574.803 182.134Z" fill="#141414"/>
</svg>
