<svg width="1101" height="812" viewBox="0 0 1101 812" fill="none" xmlns="http://www.w3.org/2000/svg">
  <g clip-path="url(#clip0_10_28)">
    <path opacity="0.1"
      d="M11.8398 389.02C29.2098 456.15 65.9498 514.18 124.01 542.31C244.71 600.77 516.92 570.62 720.08 536.01C825.17 518.11 917.54 468.71 984.64 399.19L11.8398 389.02Z"
      fill="#008489" />
    <path opacity="0.1"
      d="M1077.2 73.0301H965.73C960.44 73.0301 956.1 69.1101 956.1 64.3201C956.1 59.5301 960.44 55.6001 965.73 55.6001H985.01C979.71 55.6001 975.38 51.6801 975.38 46.8801C975.38 42.0801 979.71 38.1701 985.01 38.1701H971.25C965.95 38.1701 961.61 34.2501 961.61 29.4501C961.61 24.6501 965.95 20.7401 971.25 20.7401H1029.43C1016.52 15.3101 1001.43 11.4501 984.04 9.4201C825.39 -9.0099 768.75 3.1801 748.77 15.7101C723.866 31.5226 696.202 42.4944 667.23 48.0501C569.35 66.3201 386.3 88.3001 220.39 41.0501C137.93 17.5201 76.6402 57.2301 39.9102 123.61H1096.56C1095.18 104.32 1091.05 86.5001 1083.47 70.9101C1081.67 72.2961 1079.47 73.0423 1077.2 73.0301V73.0301Z"
      fill="#008489" />
    <path opacity="0.1"
      d="M2.39013 248.9C-1.89141 287.942 -0.435988 327.4 6.71013 366.02L985.39 398.41C1012.33 370.469 1035.22 338.888 1053.39 304.59L2.39013 248.9ZM389.47 332.45H370.2C375.5 332.45 379.84 336.38 379.84 341.17C379.84 345.96 375.5 349.88 370.2 349.88H258.73C253.44 349.88 249.1 345.96 249.1 341.17C249.1 336.38 253.44 332.45 258.73 332.45H278.01C272.71 332.45 268.38 328.53 268.38 323.74C268.38 318.95 272.71 315.02 278.01 315.02H264.24C258.94 315.02 254.6 311.1 254.6 306.31C254.6 301.52 258.94 297.59 264.24 297.59H375.71C381.01 297.59 385.34 301.51 385.34 306.31C385.34 311.11 381.01 315.02 375.71 315.02H389.47C394.77 315.02 399.1 318.94 399.1 323.74C399.1 328.54 394.77 332.45 389.47 332.45Z"
      fill="#008489" />
    <path opacity="0.1"
      d="M1096.6 124.21L28.1203 147.71C15.1203 177.94 6.50027 212.12 2.53027 247.54H1077.88C1084.88 226.817 1090.07 205.528 1093.4 183.91C1096.61 163.1 1097.89 142.97 1096.6 124.21ZM219.47 201.26H200.2C205.5 201.26 209.84 205.19 209.84 209.98C209.84 214.77 205.5 218.7 200.2 218.7H88.7303C83.4403 218.7 79.1003 214.77 79.1003 209.98C79.1003 205.19 83.4403 201.26 88.7303 201.26H108.01C102.71 201.26 98.3803 197.34 98.3803 192.55C98.3803 187.76 102.71 183.83 108.01 183.83H94.2403C88.9403 183.83 84.6003 179.91 84.6003 175.12C84.6003 170.33 88.9403 166.4 94.2403 166.4H205.71C211.01 166.4 215.34 170.32 215.34 175.12C215.34 179.92 211.01 183.83 205.71 183.83H219.47C224.77 183.83 229.1 187.76 229.1 192.55C229.1 197.34 224.77 201.26 219.47 201.26Z"
      fill="#008489" />
    <path opacity="0.1"
      d="M545.08 781.08C791.94 781.08 992.06 762.67 992.06 739.96C992.06 717.25 791.94 698.84 545.08 698.84C298.219 698.84 98.0996 717.25 98.0996 739.96C98.0996 762.67 298.219 781.08 545.08 781.08Z"
      fill="#008489" />
    <path
      d="M518.99 763.29C689.37 763.29 827.49 625.17 827.49 454.79C827.49 284.41 689.37 146.29 518.99 146.29C348.61 146.29 210.49 284.41 210.49 454.79C210.49 625.17 348.61 763.29 518.99 763.29Z"
      fill="#008489" />
    <path
      d="M680.86 609.82C680.86 658.52 604.3 613.98 522.22 613.98C440.14 613.98 357.12 656.68 357.12 607.98C357.12 580.21 383.58 541.59 421.54 513.54C450.14 492.4 485.26 477.26 520.54 477.26C556.82 477.26 592.36 493.65 620.71 516.15C656.49 544.52 680.86 582.64 680.86 609.82Z"
      fill="#444053" />
    <path
      d="M620.7 516.13C577.07 509.56 498.16 501.55 421.54 513.52C450.14 492.38 485.26 477.24 520.54 477.24C556.81 477.24 592.35 493.63 620.7 516.13Z"
      fill="#F6F8FB" />
    <path opacity="0.05"
      d="M357.12 237.02C357.12 237.02 264.19 296.43 264.95 389.36C265.71 482.29 357.12 237.02 357.12 237.02Z"
      fill="black" />
    <path
      d="M827.37 69.2299C827.37 69.2299 743.17 64.1599 753.1 123.16C753.1 123.16 751.1 133.58 760.58 138.32C760.58 138.32 760.73 133.95 769.21 135.43C772.232 135.936 775.303 136.083 778.36 135.87C782.491 135.589 786.416 133.967 789.54 131.25V131.25C789.54 131.25 813.21 121.48 822.42 82.7899C822.42 82.7899 829.23 74.3499 828.96 72.1899L814.75 78.2499C814.75 78.2499 819.6 88.4999 815.75 97.0199C815.75 97.0199 815.29 78.6299 812.56 79.0199C812.01 79.1099 805.18 82.5699 805.18 82.5699C805.18 82.5699 813.53 100.43 807.18 113.4C807.18 113.4 809.57 91.3999 802.52 83.8599L792.52 89.6999C792.52 89.6999 802.28 108.14 795.66 123.19C795.66 123.19 797.36 100.11 790.42 91.1199L781.35 98.1899C781.35 98.1899 790.52 116.37 784.93 128.85C784.93 128.85 784.2 101.98 779.39 99.9499C779.39 99.9499 771.46 106.95 770.25 109.82C770.25 109.82 776.53 123.01 772.64 129.97C772.64 129.97 770.25 112.07 768.29 111.97C768.29 111.97 760.39 123.83 759.56 131.97C759.56 131.97 759.91 119.87 766.37 110.84C766.37 110.84 758.73 112.15 754.28 117.11C754.28 117.11 755.51 108.72 768.28 107.99C768.28 107.99 774.81 98.9899 776.56 98.4499C776.56 98.4499 763.81 97.3799 756.08 100.81C756.08 100.81 762.88 92.8999 778.89 96.4899L787.89 89.1899C787.89 89.1899 771.11 86.8899 763.99 89.4299C763.99 89.4299 772.18 82.4299 790.3 87.5299L800.05 81.6999C800.05 81.6999 785.74 78.6199 777.21 79.6999C777.21 79.6999 786.21 74.8499 802.9 80.1099L809.9 76.9799C809.9 76.9799 799.41 74.9199 796.34 74.5999C793.27 74.2799 793.11 73.4199 793.11 73.4199C799.772 72.3368 806.604 73.1297 812.84 75.7099C812.84 75.7099 827.62 70.1599 827.37 69.2299Z"
      fill="#008489" />
    <path
      d="M741.01 43C741.01 43 703.01 40.7 707.45 67.36C707.45 67.36 706.56 72.07 710.83 74.21C710.83 74.21 710.89 72.21 714.73 72.91C716.094 73.1346 717.48 73.2017 718.86 73.11C720.727 72.9767 722.502 72.2436 723.92 71.02V71.02C723.92 71.02 734.61 66.6 738.77 49.12C738.77 49.12 741.85 45.31 741.77 44.33L735.35 47.07C735.35 47.07 737.55 51.7 735.82 55.55C735.82 55.55 735.61 47.24 734.38 47.44C734.13 47.44 731.04 49.04 731.04 49.04C731.04 49.04 734.82 57.11 731.97 62.97C731.97 62.97 733.05 53.03 729.87 49.62L725.35 52.26C725.35 52.26 729.76 60.6 726.77 67.4C726.77 67.4 727.53 56.97 724.4 52.91L720.3 56.1C720.3 56.1 724.44 64.31 721.92 69.95C721.92 69.95 721.59 57.81 719.41 56.89C719.41 56.89 715.83 60.05 715.28 61.35C715.28 61.35 718.12 67.35 716.36 70.46C716.36 70.46 715.28 62.37 714.36 62.34C714.36 62.34 710.79 67.69 710.42 71.34C710.592 67.9432 711.65 64.6507 713.49 61.79C711.432 62.1793 709.534 63.1632 708.03 64.62C708.03 64.62 708.58 60.83 714.37 60.5C714.37 60.5 717.32 56.44 718.11 56.19C718.11 56.19 712.35 55.71 708.86 57.26C708.86 57.26 711.93 53.68 719.17 55.26L723.17 51.97C723.17 51.97 715.59 50.97 712.37 52.07C712.37 52.07 716.07 48.91 724.26 51.22L728.66 48.58C728.66 48.58 722.2 47.19 718.34 47.69C718.34 47.69 722.41 45.5 729.95 47.88L733.1 46.46C733.1 46.46 728.36 45.53 726.98 45.39C725.6 45.25 725.51 44.86 725.51 44.86C728.512 44.3606 731.593 44.7069 734.41 45.86C734.41 45.86 741.12 43.42 741.01 43Z"
      fill="#008489" />
    <path opacity="0.1"
      d="M1073.09 730.01C1087.96 730.01 1100.02 727.973 1100.02 725.46C1100.02 722.947 1087.96 720.91 1073.09 720.91C1058.22 720.91 1046.16 722.947 1046.16 725.46C1046.16 727.973 1058.22 730.01 1073.09 730.01Z"
      fill="#008489" />
    <path opacity="0.1"
      d="M46.7698 805.7C61.6429 805.7 73.6998 803.663 73.6998 801.15C73.6998 798.637 61.6429 796.6 46.7698 796.6C31.8968 796.6 19.8398 798.637 19.8398 801.15C19.8398 803.663 31.8968 805.7 46.7698 805.7Z"
      fill="#008489" />
    <path opacity="0.1"
      d="M203.1 811.41C217.973 811.41 230.03 809.373 230.03 806.86C230.03 804.347 217.973 802.31 203.1 802.31C188.227 802.31 176.17 804.347 176.17 806.86C176.17 809.373 188.227 811.41 203.1 811.41Z"
      fill="#008489" />
    <path
      d="M1014.15 781.02C1036.36 781.02 1054.36 777.975 1054.36 774.22C1054.36 770.464 1036.36 767.42 1014.15 767.42C991.943 767.42 973.94 770.464 973.94 774.22C973.94 777.975 991.943 781.02 1014.15 781.02Z"
      fill="#008489" />
    <path
      d="M1030.77 763.11C1032.61 761.612 1033.94 759.593 1034.61 757.32C1035.1 755.03 1034.12 752.27 1031.93 751.43C1029.47 750.49 1026.84 752.2 1024.85 753.92C1022.86 755.64 1020.57 757.6 1017.96 757.24C1019.3 756.025 1020.31 754.482 1020.87 752.762C1021.44 751.043 1021.55 749.206 1021.2 747.43C1021.09 746.694 1020.78 746.003 1020.3 745.43C1018.93 743.97 1016.46 744.59 1014.82 745.74C1009.62 749.4 1008.17 756.46 1008.14 762.82C1007.62 760.53 1008.06 758.14 1008.05 755.82C1008.04 753.5 1007.39 750.82 1005.41 749.59C1004.18 748.934 1002.8 748.61 1001.41 748.65C999.07 748.56 996.47 748.79 994.87 750.5C992.87 752.63 993.4 756.19 995.13 758.5C996.86 760.81 999.48 762.31 1001.89 763.92C1003.83 765.073 1005.48 766.649 1006.73 768.53C1006.88 768.795 1007 769.073 1007.09 769.36H1021.74C1025.02 767.693 1028.06 765.591 1030.77 763.11V763.11Z"
      fill="#008489" />
    <path
      d="M59.3396 679.26C59.3396 679.26 64.8296 686.44 56.7996 697.26C48.7696 708.08 42.1496 717.26 44.7996 724.02C44.7996 724.02 56.9096 703.88 66.7996 703.59C76.6896 703.3 70.1796 691.37 59.3396 679.26Z"
      fill="#008489" />
    <path opacity="0.1"
      d="M59.3403 679.26C59.817 679.954 60.194 680.711 60.4603 681.51C70.0803 692.81 75.2003 703.36 65.9603 703.62C57.3403 703.87 46.9603 719.27 44.5303 723.16C44.6152 723.462 44.7154 723.759 44.8303 724.05C44.8303 724.05 56.9403 703.91 66.8303 703.62C76.7203 703.33 70.1803 691.37 59.3403 679.26Z"
      fill="black" />
    <path
      d="M69.5503 688.41C69.5503 690.94 69.2603 692.99 68.9103 692.99C68.5603 692.99 68.2803 690.99 68.2803 688.41C68.2803 685.83 68.6303 687.07 68.9903 687.07C69.3503 687.07 69.5503 685.88 69.5503 688.41Z"
      fill="#FFD037" />
    <path
      d="M73.0096 691.43C70.7896 692.64 68.8596 693.37 68.6896 693.06C68.5196 692.75 70.1896 691.53 72.4096 690.32C74.6296 689.11 73.7496 689.99 73.9196 690.32C74.0896 690.65 75.2696 690.22 73.0096 691.43Z"
      fill="#FFD037" />
    <path
      d="M30.3204 679.26C30.3204 679.26 24.8304 686.44 32.8504 697.26C40.8704 708.08 47.5004 717.26 44.8504 724.02C44.8504 724.02 32.7304 703.88 22.8504 703.59C12.9704 703.3 19.4704 691.37 30.3204 679.26Z"
      fill="#008489" />
    <path opacity="0.1"
      d="M30.3203 679.26C29.8391 679.951 29.4618 680.709 29.2003 681.51C19.5803 692.81 14.4503 703.36 23.7003 703.62C32.3103 703.87 42.7003 719.27 45.1203 723.16C45.0387 723.461 44.9419 723.758 44.8303 724.05C44.8303 724.05 32.7103 703.91 22.8303 703.62C12.9503 703.33 19.4703 691.37 30.3203 679.26Z"
      fill="black" />
    <path
      d="M20.1104 688.41C20.1104 690.94 20.3904 692.99 20.7404 692.99C21.0904 692.99 21.3704 690.99 21.3704 688.41C21.3704 685.83 21.0204 687.07 20.6704 687.07C20.3204 687.07 20.1104 685.88 20.1104 688.41Z"
      fill="#FFD037" />
    <path
      d="M16.6 691.43C18.82 692.64 20.76 693.37 20.93 693.06C21.1 692.75 19.43 691.53 17.21 690.32C14.99 689.11 15.86 689.99 15.7 690.32C15.54 690.65 14.38 690.22 16.6 691.43Z"
      fill="#FFD037" />
    <path
      d="M21.8604 723.11C21.8604 723.11 37.2204 722.64 41.8604 719.34C46.5004 716.04 65.4903 712.11 66.6404 717.34C67.7904 722.57 89.7204 743.64 72.3804 743.78C55.0404 743.92 32.0904 741.07 27.4704 738.26C22.8504 735.45 21.8604 723.11 21.8604 723.11Z"
      fill="#A8A8A8" />
    <path opacity="0.2"
      d="M72.6704 741.99C55.3304 742.13 32.3804 739.28 27.7604 736.47C24.2404 734.33 22.8404 726.64 22.3704 723.09H21.8604C21.8604 723.09 22.8604 735.48 27.4504 738.29C32.0404 741.1 55.0204 743.95 72.3604 743.81C77.3604 743.81 79.0904 741.98 79.0004 739.35C78.3004 740.96 76.4004 741.96 72.6704 741.99Z"
      fill="black" />
    <path
      d="M409.31 414.34C415.18 414.01 442.81 411.93 460.36 401.92C463.179 400.262 466.363 399.324 469.63 399.19C475.21 399.03 481.63 401.36 477.52 414.4C470.86 435.73 432.19 459.73 408.19 458.4C385.11 457.12 357.73 447.82 339.65 415.12C337.918 411.974 337.065 408.42 337.18 404.83C337.39 398.23 339.79 389.96 352.18 399.18C368.92 411.63 400.68 413.99 407.05 414.34C407.803 414.38 408.557 414.38 409.31 414.34Z"
      fill="#444053" />
    <path
      d="M631.31 414.34C637.18 414.01 664.81 411.93 682.36 401.92C685.179 400.262 688.363 399.324 691.63 399.19C697.21 399.03 703.63 401.36 699.52 414.4C692.86 435.73 654.19 459.73 630.19 458.4C607.11 457.12 579.73 447.82 561.65 415.12C559.918 411.974 559.065 408.42 559.18 404.83C559.39 398.23 561.79 389.96 574.18 399.18C590.92 411.63 622.68 413.99 629.05 414.34C629.803 414.38 630.557 414.38 631.31 414.34Z"
      fill="#444053" />
  </g>
  <defs>
    <clipPath id="clip0_10_28">
      <rect width="1100.02" height="811.41" fill="white" />
    </clipPath>
  </defs>
</svg>