<svg width="400" height="283" viewBox="0 0 400 283" fill="none" xmlns="http://www.w3.org/2000/svg">
  <path
    d="M396.795 250.707V32.2623C396.785 25.5652 394.121 19.1452 389.385 14.4096C384.649 9.67407 378.229 7.00948 371.532 7H28.2623C21.5652 7.00948 15.1452 9.67408 10.4096 14.4096C5.67409 19.1452 3.00948 25.5652 3 32.2623V250.707C3.00948 257.404 5.67409 263.824 10.4096 268.56C15.1452 273.295 21.5652 275.96 28.2623 275.969H371.532C378.229 275.96 384.649 273.295 389.385 268.56C394.121 263.824 396.785 257.404 396.795 250.707ZM28.2623 272.997C22.3528 272.99 16.6873 270.639 12.5086 266.461C8.32996 262.282 5.97924 256.616 5.97205 250.707V32.2623C5.97924 26.3528 8.32996 20.6873 12.5086 16.5086C16.6873 12.33 22.3528 9.97921 28.2623 9.97202H371.532C377.442 9.97921 383.107 12.33 387.286 16.5086C391.465 20.6873 393.815 26.3528 393.823 32.2623V250.707C393.815 256.616 391.465 262.282 387.286 266.461C383.107 270.639 377.442 272.99 371.532 272.997H28.2623Z"
    fill="#303030" />
  <path
    d="M393.823 46.3033H5.97233C5.57821 46.3033 5.20025 46.1467 4.92158 45.868C4.6429 45.5894 4.48633 45.2114 4.48633 44.8173C4.48633 44.4232 4.6429 44.0452 4.92158 43.7665C5.20025 43.4879 5.57821 43.3313 5.97233 43.3313H393.823C394.217 43.3313 394.595 43.4879 394.873 43.7665C395.152 44.0452 395.309 44.4232 395.309 44.8173C395.309 45.2114 395.152 45.5894 394.873 45.868C394.595 46.1467 394.217 46.3033 393.823 46.3033Z"
    fill="#303030" />
  <path
    d="M31.2348 35.2342C35.3383 35.2342 38.6649 31.9077 38.6649 27.8041C38.6649 23.7006 35.3383 20.374 31.2348 20.374C27.1313 20.374 23.8047 23.7006 23.8047 27.8041C23.8047 31.9077 27.1313 35.2342 31.2348 35.2342Z"
    fill="#008489" />
  <path
    d="M56.4965 35.2342C60.6 35.2342 63.9266 31.9077 63.9266 27.8041C63.9266 23.7006 60.6 20.374 56.4965 20.374C52.393 20.374 49.0664 23.7006 49.0664 27.8041C49.0664 31.9077 52.393 35.2342 56.4965 35.2342Z"
    fill="#008489" />
  <path
    d="M81.7592 35.2342C85.8627 35.2342 89.1893 31.9077 89.1893 27.8041C89.1893 23.7006 85.8627 20.374 81.7592 20.374C77.6557 20.374 74.3291 23.7006 74.3291 27.8041C74.3291 31.9077 77.6557 35.2342 81.7592 35.2342Z"
    fill="#008489" />
  <path
    d="M137.287 206.232C137.156 206.232 137.026 206.206 136.904 206.156C136.783 206.105 136.673 206.032 136.58 205.939C136.487 205.846 136.413 205.736 136.363 205.614C136.313 205.493 136.287 205.363 136.287 205.232C136.287 194.805 131.716 188.989 124.342 182.985C124.24 182.902 124.155 182.8 124.092 182.684C124.029 182.568 123.99 182.442 123.976 182.311C123.963 182.18 123.975 182.048 124.013 181.922C124.05 181.795 124.113 181.678 124.196 181.576C124.279 181.474 124.381 181.389 124.497 181.327C124.613 181.265 124.74 181.226 124.871 181.213C125.001 181.199 125.134 181.212 125.26 181.25C125.386 181.288 125.503 181.35 125.605 181.434C133.435 187.809 138.287 194.014 138.287 205.232C138.287 205.363 138.261 205.493 138.211 205.614C138.161 205.736 138.087 205.846 137.994 205.939C137.901 206.032 137.791 206.105 137.67 206.156C137.549 206.206 137.418 206.232 137.287 206.232Z"
    fill="#303030" />
  <path
    d="M51.625 206.232C51.4937 206.232 51.3637 206.206 51.2423 206.156C51.121 206.105 51.0107 206.032 50.9178 205.939C50.825 205.846 50.7513 205.736 50.7011 205.614C50.6508 205.493 50.625 205.363 50.625 205.232C50.625 194.014 55.4776 187.809 63.3076 181.434C63.4094 181.35 63.5266 181.288 63.6526 181.25C63.7785 181.212 63.9107 181.199 64.0416 181.213C64.1725 181.226 64.2995 181.265 64.4153 181.327C64.5311 181.389 64.6335 181.474 64.7165 181.576C64.7996 181.678 64.8617 181.795 64.8993 181.922C64.9369 182.048 64.9493 182.18 64.9357 182.311C64.9221 182.442 64.8829 182.568 64.8202 182.684C64.7575 182.8 64.6726 182.902 64.5703 182.985C57.1958 188.989 52.625 194.806 52.625 205.232C52.6251 205.363 52.5992 205.493 52.549 205.614C52.4987 205.736 52.4251 205.846 52.3322 205.939C52.2393 206.032 52.1291 206.105 52.0078 206.156C51.8864 206.206 51.7564 206.232 51.625 206.232Z"
    fill="#303030" />
  <path
    d="M128.722 137.701C128.515 137.701 128.314 137.638 128.145 137.519C127.976 137.4 127.848 137.231 127.779 137.037C127.71 136.842 127.703 136.631 127.758 136.432C127.814 136.233 127.93 136.056 128.09 135.926C135.67 129.755 136.287 120.988 136.287 111.003C136.287 110.737 136.393 110.483 136.58 110.296C136.768 110.108 137.022 110.003 137.287 110.003C137.552 110.003 137.807 110.108 137.994 110.296C138.182 110.483 138.287 110.737 138.287 111.003C138.287 121.508 137.615 130.75 129.353 137.477C129.175 137.622 128.952 137.702 128.722 137.701Z"
    fill="#303030" />
  <path
    d="M60.1909 137.166C59.961 137.167 59.7381 137.087 59.5601 136.942C51.2974 130.215 50.625 121.215 50.625 111.003C50.625 110.737 50.7304 110.483 50.9179 110.296C51.1055 110.108 51.3598 110.003 51.625 110.003C51.8902 110.003 52.1446 110.108 52.3322 110.296C52.5197 110.483 52.625 110.737 52.625 111.003C52.625 121.039 53.2285 129.208 60.8228 135.391C60.9829 135.521 61.0987 135.698 61.1544 135.897C61.21 136.096 61.2027 136.307 61.1334 136.501C61.0642 136.696 60.9364 136.864 60.7677 136.983C60.5989 137.102 60.3975 137.166 60.1909 137.166Z"
    fill="#303030" />
  <path
    d="M150.137 159.152H128.721C128.456 159.152 128.202 159.047 128.014 158.859C127.827 158.672 127.721 158.417 127.721 158.152C127.721 157.887 127.827 157.632 128.014 157.445C128.202 157.257 128.456 157.152 128.721 157.152H150.137C150.402 157.152 150.656 157.257 150.844 157.445C151.031 157.632 151.137 157.887 151.137 158.152C151.137 158.417 151.031 158.672 150.844 158.859C150.656 159.047 150.402 159.152 150.137 159.152Z"
    fill="#303030" />
  <path
    d="M60.192 159.152H38.7764C38.5112 159.152 38.2569 159.047 38.0693 158.859C37.8818 158.672 37.7764 158.417 37.7764 158.152C37.7764 157.887 37.8818 157.632 38.0693 157.445C38.2569 157.257 38.5112 157.152 38.7764 157.152H60.192C60.4572 157.152 60.7116 157.257 60.8991 157.445C61.0866 157.632 61.192 157.887 61.192 158.152C61.192 158.417 61.0866 158.672 60.8991 158.859C60.7116 159.047 60.4572 159.152 60.192 159.152Z"
    fill="#303030" />
  <path
    d="M94.4561 201.948C94.3248 201.948 94.1947 201.923 94.0734 201.872C93.952 201.822 93.8418 201.749 93.7489 201.656C93.656 201.563 93.5824 201.453 93.5321 201.331C93.4819 201.21 93.4561 201.08 93.4561 200.948V132.419C93.4561 132.153 93.5615 131.899 93.749 131.712C93.9365 131.524 94.1909 131.419 94.4561 131.419C94.7213 131.419 94.9757 131.524 95.1632 131.712C95.3507 131.899 95.4561 132.153 95.4561 132.419V200.948C95.4561 201.08 95.4303 201.21 95.38 201.331C95.3298 201.453 95.2561 201.563 95.1633 201.656C95.0704 201.749 94.9601 201.822 94.8388 201.872C94.7175 201.923 94.5874 201.948 94.4561 201.948Z"
    fill="#303030" />
  <path
    d="M94.456 201.948C85.1064 201.938 76.1429 198.219 69.5318 191.608C62.9207 184.996 59.202 176.033 59.1914 166.683V140.966C59.1914 124.498 72.7041 114.267 94.456 114.267C117.197 114.267 129.721 123.749 129.721 140.966V166.683C129.711 176.033 125.992 184.997 119.381 191.608C112.769 198.219 103.806 201.938 94.456 201.948ZM94.456 116.267C78.3749 116.267 61.1913 122.756 61.1913 140.966V166.683C61.1889 171.053 62.0476 175.381 63.7183 179.419C65.3889 183.457 67.8388 187.126 70.9279 190.217C74.0171 193.308 77.685 195.76 81.7221 197.433C85.7592 199.105 90.0863 199.966 94.4562 199.966C98.8262 199.966 103.153 199.105 107.19 197.433C111.228 195.76 114.895 193.308 117.985 190.217C121.074 187.126 123.524 183.457 125.194 179.419C126.865 175.381 127.724 171.053 127.721 166.683V140.966C127.721 119.476 106.879 116.267 94.456 116.267Z"
    fill="#303030" />
  <path
    d="M73.9595 120.441C73.7593 120.441 73.5638 120.381 73.3982 120.269C73.2325 120.157 73.1044 119.997 73.0303 119.811C72.4527 118.366 72.1188 116.834 72.042 115.28C72.0594 109.351 74.4186 103.669 78.6058 99.4721C82.793 95.2749 88.4689 92.902 94.3975 92.8704H94.5122C100.433 92.8986 106.104 95.263 110.291 99.4496C114.478 103.636 116.843 109.306 116.872 115.227C116.82 116.674 116.512 118.1 115.961 119.438C115.859 119.682 115.665 119.875 115.421 119.976C115.177 120.076 114.903 120.077 114.659 119.976C114.415 119.876 114.22 119.683 114.118 119.44C114.015 119.196 114.013 118.922 114.112 118.677C114.569 117.569 114.826 116.388 114.873 115.19C114.837 109.804 112.679 104.65 108.867 100.846C105.055 97.0414 99.8955 94.8943 94.5098 94.8704H94.3999C89.0081 94.8972 83.8448 97.0511 80.0324 100.864C76.22 104.677 74.0667 109.84 74.0405 115.232C74.1114 116.549 74.3976 117.846 74.8877 119.07C74.948 119.222 74.9703 119.386 74.9527 119.548C74.935 119.711 74.8779 119.866 74.7864 120.001C74.6949 120.136 74.5717 120.247 74.4276 120.324C74.2835 120.401 74.1228 120.441 73.9595 120.441Z"
    fill="#303030" />
  <path
    d="M196.019 115.003H184.019C182.162 115.003 180.382 114.265 179.069 112.952C177.756 111.64 177.019 109.859 177.019 108.003C177.019 106.146 177.756 104.366 179.069 103.053C180.382 101.74 182.162 101.003 184.019 101.003H196.019C197.875 101.003 199.656 101.74 200.969 103.053C202.281 104.366 203.019 106.146 203.019 108.003C203.019 109.859 202.281 111.64 200.969 112.952C199.656 114.265 197.875 115.003 196.019 115.003Z"
    fill="#D3D3D3" />
  <path
    d="M278.019 144.503H266.019C264.162 144.503 262.382 143.765 261.069 142.452C259.756 141.14 259.019 139.359 259.019 137.503C259.019 135.646 259.756 133.866 261.069 132.553C262.382 131.24 264.162 130.503 266.019 130.503H278.019C279.875 130.503 281.656 131.24 282.969 132.553C284.281 133.866 285.019 135.646 285.019 137.503C285.019 139.359 284.281 141.14 282.969 142.452C281.656 143.765 279.875 144.503 278.019 144.503Z"
    fill="#D3D3D3" />
  <path
    d="M316.019 144.503H304.019C302.162 144.503 300.382 143.765 299.069 142.452C297.756 141.14 297.019 139.359 297.019 137.503C297.019 135.646 297.756 133.866 299.069 132.553C300.382 131.24 302.162 130.503 304.019 130.503H316.019C317.875 130.503 319.656 131.24 320.969 132.553C322.281 133.866 323.019 135.646 323.019 137.503C323.019 139.359 322.281 141.14 320.969 142.452C319.656 143.765 317.875 144.503 316.019 144.503Z"
    fill="#D3D3D3" />
  <path
    d="M354.019 144.503H342.019C340.162 144.503 338.382 143.765 337.069 142.452C335.756 141.14 335.019 139.359 335.019 137.503C335.019 135.646 335.756 133.866 337.069 132.553C338.382 131.24 340.162 130.503 342.019 130.503H354.019C355.875 130.503 357.656 131.24 358.969 132.553C360.281 133.866 361.019 135.646 361.019 137.503C361.019 139.359 360.281 141.14 358.969 142.452C357.656 143.765 355.875 144.503 354.019 144.503Z"
    fill="#D3D3D3" />
  <path
    d="M279.019 115.503H223.019C221.162 115.503 219.382 114.765 218.069 113.452C216.756 112.14 216.019 110.359 216.019 108.503C216.019 106.646 216.756 104.866 218.069 103.553C219.382 102.24 221.162 101.503 223.019 101.503H279.019C280.875 101.503 282.656 102.24 283.969 103.553C285.281 104.866 286.019 106.646 286.019 108.503C286.019 110.359 285.281 112.14 283.969 113.452C282.656 114.765 280.875 115.503 279.019 115.503Z"
    fill="#D3D3D3" />
  <path
    d="M240.019 143.503H184.019C182.162 143.503 180.382 142.765 179.069 141.452C177.756 140.14 177.019 138.359 177.019 136.503C177.019 134.646 177.756 132.866 179.069 131.553C180.382 130.24 182.162 129.503 184.019 129.503H240.019C241.875 129.503 243.656 130.24 244.969 131.553C246.281 132.866 247.019 134.646 247.019 136.503C247.019 138.359 246.281 140.14 244.969 141.452C243.656 142.765 241.875 143.503 240.019 143.503Z"
    fill="#D3D3D3" />
  <path
    d="M350.019 115.503H307.019C305.162 115.503 303.382 114.765 302.069 113.452C300.756 112.14 300.019 110.359 300.019 108.503C300.019 106.646 300.756 104.866 302.069 103.553C303.382 102.24 305.162 101.503 307.019 101.503H350.019C351.875 101.503 353.656 102.24 354.969 103.553C356.281 104.866 357.019 106.646 357.019 108.503C357.019 110.359 356.281 112.14 354.969 113.452C353.656 114.765 351.875 115.503 350.019 115.503Z"
    fill="#D3D3D3" />
  <path
    d="M196.019 174.003H184.019C182.162 174.003 180.382 173.265 179.069 171.952C177.756 170.64 177.019 168.859 177.019 167.003C177.019 165.146 177.756 163.366 179.069 162.053C180.382 160.74 182.162 160.003 184.019 160.003H196.019C197.875 160.003 199.656 160.74 200.969 162.053C202.281 163.366 203.019 165.146 203.019 167.003C203.019 168.859 202.281 170.64 200.969 171.952C199.656 173.265 197.875 174.003 196.019 174.003Z"
    fill="#D3D3D3" />
  <path
    d="M279.019 174.503H223.019C221.162 174.503 219.382 173.765 218.069 172.452C216.756 171.14 216.019 169.359 216.019 167.503C216.019 165.646 216.756 163.866 218.069 162.553C219.382 161.24 221.162 160.503 223.019 160.503H279.019C280.875 160.503 282.656 161.24 283.969 162.553C285.281 163.866 286.019 165.646 286.019 167.503C286.019 169.359 285.281 171.14 283.969 172.452C282.656 173.765 280.875 174.503 279.019 174.503Z"
    fill="#D3D3D3" />
  <path
    d="M350.019 174.503H307.019C305.162 174.503 303.382 173.765 302.069 172.452C300.756 171.14 300.019 169.359 300.019 167.503C300.019 165.646 300.756 163.866 302.069 162.553C303.382 161.24 305.162 160.503 307.019 160.503H350.019C351.875 160.503 353.656 161.24 354.969 162.553C356.281 163.866 357.019 165.646 357.019 167.503C357.019 169.359 356.281 171.14 354.969 172.452C353.656 173.765 351.875 174.503 350.019 174.503Z"
    fill="#D3D3D3" />
  <path
    d="M331.019 198.003C331.021 196.147 331.759 194.368 333.071 193.055C334.384 191.743 336.163 191.005 338.019 191.003H350.019C351.875 191.003 353.656 191.74 354.969 193.053C356.281 194.366 357.019 196.146 357.019 198.003C357.019 199.859 356.281 201.64 354.969 202.952C353.656 204.265 351.875 205.003 350.019 205.003H338.019C336.163 205.001 334.384 204.262 333.071 202.95C331.759 201.638 331.021 199.859 331.019 198.003Z"
    fill="#D3D3D3" />
  <path
    d="M248.019 198.503C248.021 196.647 248.759 194.868 250.071 193.555C251.384 192.243 253.163 191.505 255.019 191.503H311.019C312.875 191.503 314.656 192.24 315.969 193.553C317.281 194.866 318.019 196.646 318.019 198.503C318.019 200.359 317.281 202.14 315.969 203.452C314.656 204.765 312.875 205.503 311.019 205.503H255.019C253.163 205.501 251.384 204.762 250.071 203.45C248.759 202.138 248.021 200.359 248.019 198.503Z"
    fill="#D3D3D3" />
  <path
    d="M177.019 198.503C177.021 196.647 177.759 194.868 179.071 193.555C180.384 192.243 182.163 191.505 184.019 191.503H227.019C228.875 191.503 230.656 192.24 231.969 193.553C233.281 194.866 234.019 196.646 234.019 198.503C234.019 200.359 233.281 202.14 231.969 203.452C230.656 204.765 228.875 205.503 227.019 205.503H184.019C182.163 205.501 180.384 204.762 179.071 203.45C177.759 202.138 177.021 200.359 177.019 198.503Z"
    fill="#D3D3D3" />
</svg>