<svg width="1075" height="477" viewBox="0 0 1075 477" fill="none" xmlns="http://www.w3.org/2000/svg">
<path d="M537.5 453.249C828.83 453.249 1065 437.614 1065 418.328C1065 399.041 828.83 383.406 537.5 383.406C246.17 383.406 10 399.041 10 418.328C10 437.614 246.17 453.249 537.5 453.249Z" fill="#F2F2F2"/>
<path d="M517.282 36.0279C431.338 36.0279 369.631 91.1673 369.631 219.826C369.631 365.639 431.338 404.236 517.282 404.236C603.226 404.236 668.609 361.963 668.609 219.826C668.609 67.8862 603.226 36.0279 517.282 36.0279ZM517.847 355.836C458.32 355.836 427.221 320.913 427.221 219.92C427.221 130.808 459.593 83.8153 519.12 83.8153C578.647 83.8153 611.019 114.683 611.019 219.92C611.019 318.367 577.374 355.836 517.847 355.836Z" fill="#2F2E41"/>
<path d="M318.168 302.535H282.634V197.895C282.634 192.338 280.426 187.007 276.496 183.077C272.566 179.147 267.236 176.94 261.678 176.94H253.351C250.599 176.94 247.874 177.482 245.332 178.535C242.789 179.588 240.479 181.132 238.533 183.077C236.587 185.023 235.044 187.334 233.991 189.876C232.938 192.419 232.395 195.144 232.395 197.895V302.535H132.165C130.103 302.535 128.077 302.002 126.281 300.988C124.486 299.974 122.983 298.513 121.919 296.747C120.855 294.981 120.265 292.969 120.207 290.908C120.149 288.847 120.625 286.806 121.588 284.983L227.67 84.2025C228.993 81.6993 229.794 78.954 230.027 76.1325C230.259 73.3109 229.917 70.4715 229.022 67.7857C228.126 65.0998 226.696 62.6233 224.817 60.5055C222.938 58.3877 220.65 56.6725 218.09 55.4636L211.827 52.5065C206.965 50.2102 201.406 49.8712 196.3 51.5594C191.195 53.2477 186.933 56.8341 184.398 61.5765L55.0167 303.609C52.8135 307.731 51.6609 312.332 51.6609 317.005V317.005C51.6609 320.737 52.3959 324.432 53.8239 327.879C55.2519 331.327 57.345 334.46 59.9837 337.098C62.6224 339.737 65.7549 341.83 69.2025 343.258C72.65 344.686 76.3451 345.421 80.0767 345.421H232.395V411.588C232.395 414.887 233.045 418.153 234.308 421.201C235.57 424.248 237.42 427.018 239.753 429.35C242.085 431.683 244.854 433.533 247.902 434.795C250.949 436.058 254.216 436.707 257.515 436.707H257.515C260.813 436.707 264.08 436.058 267.127 434.795C270.175 433.533 272.944 431.683 275.276 429.35C277.609 427.018 279.459 424.248 280.721 421.201C281.984 418.153 282.634 414.887 282.634 411.588V345.421H318.168C323.855 345.421 329.309 343.162 333.33 339.14C337.352 335.119 339.611 329.665 339.611 323.978V323.978C339.611 318.291 337.352 312.837 333.33 308.815C329.309 304.794 323.855 302.535 318.168 302.535V302.535Z" fill="#CA164C"/>
<path d="M976.164 302.535H940.63V197.895C940.63 192.338 938.422 187.007 934.492 183.077C930.562 179.147 925.232 176.94 919.674 176.94H911.348C908.596 176.94 905.871 177.482 903.328 178.535C900.786 179.588 898.476 181.132 896.53 183.077C894.584 185.023 893.04 187.334 891.987 189.876C890.934 192.419 890.392 195.144 890.392 197.895V302.535H790.162C788.1 302.535 786.073 302.002 784.278 300.988C782.482 299.974 780.98 298.513 779.915 296.747C778.851 294.981 778.261 292.969 778.203 290.908C778.145 288.847 778.621 286.806 779.584 284.983L885.667 84.2026C886.989 81.6993 887.791 78.9541 888.023 76.1325C888.255 73.3109 887.913 70.4715 887.018 67.7857C886.123 65.0998 884.692 62.6233 882.814 60.5055C880.935 58.3877 878.646 56.6726 876.086 55.4636L869.824 52.5065C864.961 50.2102 859.402 49.8712 854.296 51.5594C849.191 53.2477 844.93 56.8341 842.395 61.5765L713.013 303.609C710.81 307.731 709.657 312.332 709.657 317.005V317.005C709.657 324.542 712.651 331.769 717.98 337.098C723.309 342.427 730.537 345.421 738.073 345.421H890.392V411.588C890.392 418.25 893.038 424.639 897.749 429.35C902.46 434.061 908.849 436.707 915.511 436.707V436.707C922.173 436.707 928.562 434.061 933.273 429.35C937.983 424.639 940.63 418.25 940.63 411.588V345.421H976.164C981.851 345.421 987.305 343.162 991.327 339.14C995.348 335.119 997.607 329.665 997.607 323.978V323.978C997.607 318.291 995.348 312.837 991.327 308.815C987.305 304.794 981.851 302.535 976.164 302.535Z" fill="#CA164C"/>
<path d="M327.97 290.282H292.436V185.642C292.436 182.89 291.894 180.165 290.841 177.623C289.788 175.08 288.244 172.77 286.298 170.824C284.352 168.878 282.042 167.335 279.5 166.282C276.957 165.228 274.232 164.686 271.48 164.686H263.154C257.596 164.686 252.266 166.894 248.336 170.824C244.406 174.754 242.198 180.084 242.198 185.642V290.282H141.968C139.906 290.282 137.879 289.749 136.084 288.735C134.289 287.72 132.786 286.259 131.722 284.493C130.657 282.727 130.068 280.716 130.009 278.655C129.951 276.594 130.427 274.553 131.39 272.73L237.473 71.9494C238.795 69.4462 239.597 66.7009 239.829 63.8793C240.062 61.0577 239.72 58.2183 238.824 55.5324C237.929 52.8466 236.499 50.3701 234.62 48.2523C232.741 46.1345 230.452 44.4193 227.892 43.2104L221.63 40.2532C216.768 37.957 211.208 37.618 206.103 39.3062C200.997 40.9945 196.736 44.5808 194.201 49.3232L64.8193 291.356C62.6162 295.477 61.4635 300.079 61.4635 304.752V304.752C61.4635 312.288 64.4573 319.516 69.7863 324.845C75.1153 330.174 82.343 333.168 89.8793 333.168H242.198V399.335C242.198 402.634 242.848 405.9 244.11 408.948C245.373 411.995 247.223 414.764 249.555 417.097C251.888 419.429 254.657 421.28 257.704 422.542C260.752 423.804 264.018 424.454 267.317 424.454H267.317C273.979 424.454 280.368 421.808 285.079 417.097C289.79 412.386 292.436 405.997 292.436 399.335V333.168H327.97C330.786 333.168 333.575 332.613 336.176 331.536C338.778 330.458 341.142 328.878 343.133 326.887C345.124 324.896 346.704 322.532 347.781 319.931C348.859 317.329 349.414 314.541 349.414 311.725V311.725C349.414 308.909 348.859 306.12 347.781 303.519C346.704 300.917 345.124 298.553 343.133 296.562C341.142 294.571 338.778 292.992 336.176 291.914C333.575 290.836 330.786 290.282 327.97 290.282V290.282Z" stroke="#3F3D56" stroke-miterlimit="10"/>
<path d="M994.544 290.282H959.01V185.642C959.01 180.084 956.802 174.754 952.872 170.824C948.942 166.894 943.612 164.686 938.054 164.686H929.728C926.976 164.686 924.251 165.228 921.708 166.282C919.166 167.335 916.855 168.878 914.91 170.824C912.964 172.77 911.42 175.08 910.367 177.623C909.314 180.165 908.772 182.89 908.772 185.642V290.282H808.542C806.48 290.282 804.453 289.749 802.657 288.735C800.862 287.72 799.359 286.259 798.295 284.493C797.231 282.727 796.641 280.716 796.583 278.655C796.525 276.594 797.001 274.553 797.964 272.73L904.046 71.9494C905.369 69.4462 906.171 66.7009 906.403 63.8793C906.635 61.0577 906.293 58.2183 905.398 55.5324C904.503 52.8466 903.072 50.3701 901.194 48.2523C899.315 46.1345 897.026 44.4193 894.466 43.2104L888.204 40.2532C883.341 37.957 877.782 37.618 872.676 39.3062C867.571 40.9945 863.31 44.5808 860.774 49.3232L731.393 291.356C729.19 295.477 728.037 300.079 728.037 304.752C728.037 312.288 731.031 319.516 736.36 324.845C741.689 330.174 748.917 333.168 756.453 333.168H908.772V399.335C908.772 405.997 911.418 412.386 916.129 417.097C920.84 421.808 927.229 424.454 933.891 424.454V424.454C940.553 424.454 946.942 421.808 951.653 417.097C956.363 412.386 959.01 405.997 959.01 399.335V333.168H994.544C997.36 333.168 1000.15 332.613 1002.75 331.536C1005.35 330.458 1007.72 328.878 1009.71 326.887C1011.7 324.896 1013.28 322.532 1014.35 319.931C1015.43 317.329 1015.99 314.541 1015.99 311.725V311.725C1015.99 306.038 1013.73 300.584 1009.71 296.562C1005.69 292.541 1000.23 290.282 994.544 290.282V290.282Z" stroke="#3F3D56" stroke-miterlimit="10"/>
<path d="M536.887 25C450.943 25 389.236 80.1394 389.236 208.798C389.236 354.611 450.943 393.208 536.887 393.208C622.832 393.208 688.214 350.935 688.214 208.798C688.214 56.8583 622.831 25 536.887 25ZM537.452 344.808C477.926 344.808 446.827 309.886 446.827 208.892C446.827 119.78 479.199 72.7875 538.725 72.7875C598.252 72.7875 630.625 103.655 630.625 208.892C630.624 307.339 596.979 344.808 537.452 344.808V344.808Z" stroke="#3F3D56" stroke-miterlimit="10"/>
<path d="M477.803 210.134C487.191 210.134 494.803 200.284 494.803 188.134C494.803 175.983 487.191 166.134 477.803 166.134C468.414 166.134 460.803 175.983 460.803 188.134C460.803 200.284 468.414 210.134 477.803 210.134Z" fill="#2F2E41"/>
<path d="M570.303 210.634C579.692 210.634 587.303 200.784 587.303 188.634C587.303 176.483 579.692 166.634 570.303 166.634C560.914 166.634 553.303 176.483 553.303 188.634C553.303 200.784 560.914 210.634 570.303 210.634Z" fill="#2F2E41"/>
<path d="M557.303 253.634C557.303 263.574 543.423 271.634 526.303 271.634C509.183 271.634 495.303 263.574 495.303 253.634C495.303 245.024 505.713 237.824 519.623 236.064C521.837 235.772 524.069 235.628 526.303 235.634C530.046 235.622 533.778 236.024 537.433 236.834C549.053 239.424 557.303 245.974 557.303 253.634Z" fill="#2F2E41"/>
<path d="M481.803 205.134C491.191 205.134 498.803 195.284 498.803 183.134C498.803 170.983 491.191 161.134 481.803 161.134C472.414 161.134 464.803 170.983 464.803 183.134C464.803 195.284 472.414 205.134 481.803 205.134Z" stroke="#3F3D56" stroke-miterlimit="10"/>
<path d="M574.303 205.634C583.692 205.634 591.303 195.784 591.303 183.634C591.303 171.483 583.692 161.634 574.303 161.634C564.914 161.634 557.303 171.483 557.303 183.634C557.303 195.784 564.914 205.634 574.303 205.634Z" stroke="#3F3D56" stroke-miterlimit="10"/>
<path d="M530.303 266.634C547.424 266.634 561.303 258.575 561.303 248.634C561.303 238.693 547.424 230.634 530.303 230.634C513.182 230.634 499.303 238.693 499.303 248.634C499.303 258.575 513.182 266.634 530.303 266.634Z" stroke="#3F3D56" stroke-miterlimit="10"/>
<path d="M537.802 238.334C537.81 239.591 537.338 240.804 536.482 241.726C536.078 242.167 535.587 242.52 535.04 242.762C534.492 243.005 533.901 243.131 533.302 243.134H523.302C522.07 243.091 520.905 242.562 520.062 241.662C519.219 240.763 518.766 239.566 518.802 238.334C518.797 237.359 519.083 236.404 519.622 235.592C521.835 235.281 524.068 235.128 526.302 235.134C530.05 235.121 533.786 235.551 537.432 236.414C537.679 237.024 537.805 237.676 537.802 238.334V238.334Z" fill="white"/>
<path d="M481.803 182.134C484.564 182.134 486.803 179.895 486.803 177.134C486.803 174.372 484.564 172.134 481.803 172.134C479.041 172.134 476.803 174.372 476.803 177.134C476.803 179.895 479.041 182.134 481.803 182.134Z" fill="white"/>
<path d="M574.803 182.134C577.564 182.134 579.803 179.895 579.803 177.134C579.803 174.372 577.564 172.134 574.803 172.134C572.041 172.134 569.803 174.372 569.803 177.134C569.803 179.895 572.041 182.134 574.803 182.134Z" fill="white"/>
<path opacity="0.3" d="M579.803 229.134C582.564 229.134 584.803 226.895 584.803 224.134C584.803 221.372 582.564 219.134 579.803 219.134C577.041 219.134 574.803 221.372 574.803 224.134C574.803 226.895 577.041 229.134 579.803 229.134Z" fill="#CA164C"/>
<path opacity="0.3" d="M457.803 229.134C460.564 229.134 462.803 226.895 462.803 224.134C462.803 221.372 460.564 219.134 457.803 219.134C455.041 219.134 452.803 221.372 452.803 224.134C452.803 226.895 455.041 229.134 457.803 229.134Z" fill="#CA164C"/>
</svg>
